<?xml version="1.0" standalone="no"?>
<!DOCTYPE svg PUBLIC "-//W3C//DTD SVG 20010904//EN"
 "http://www.w3.org/TR/2001/REC-SVG-20010904/DTD/svg10.dtd">
<svg version="1.0" xmlns="http://www.w3.org/2000/svg"
 width="512.000000pt" height="512.000000pt" viewBox="0 0 512.000000 512.000000"
 preserveAspectRatio="xMidYMid meet">

<g transform="translate(0.000000,512.000000) scale(0.100000,-0.100000)"
fill="#000000" stroke="none">
<path d="M2479 5105 c-63 -20 -141 -92 -168 -155 l-22 -50 -749 0 -749 0 -21
-27 c-25 -32 -20 -69 12 -95 19 -17 70 -18 764 -18 l743 0 19 -43 c28 -63 76
-113 138 -143 l54 -26 0 -209 0 -209 -53 0 c-29 0 -58 -5 -65 -12 -9 -9 -12
-237 -12 -964 l0 -951 -67 -7 c-84 -8 -137 -37 -178 -94 -30 -43 -30 -45 -33
-198 l-4 -154 -123 0 c-134 0 -165 -7 -209 -48 -47 -44 -56 -79 -56 -212 l0
-120 -522 0 c-556 0 -656 -6 -758 -40 -188 -63 -338 -220 -396 -415 -24 -81
-24 -239 0 -319 58 -195 199 -345 386 -414 75 -27 75 -27 393 -30 l317 -3 0
-63 c0 -65 15 -94 42 -83 7 3 65 41 128 85 l114 80 122 -84 c78 -53 128 -82
138 -78 12 5 16 22 16 75 l0 69 1699 0 1700 0 20 26 c26 34 26 54 0 88 l-20
26 -1700 0 -1699 0 0 290 0 290 -280 0 -280 0 0 -290 0 -290 -149 0 -149 0
-31 35 c-55 63 -61 106 -61 430 0 315 5 350 54 426 l26 39 2126 0 c1479 0
2131 3 2145 11 51 27 43 109 -13 128 -21 8 -290 11 -829 11 l-799 0 0 119 c0
133 -7 161 -53 209 -41 43 -79 52 -219 52 l-118 0 0 140 c0 150 -9 192 -53
238 -36 38 -77 55 -152 61 l-70 6 -3 954 c-1 663 -5 958 -13 967 -6 7 -34 14
-62 16 l-52 3 -3 206 -2 206 54 27 c62 30 110 80 138 143 l19 43 743 0 c737 0
744 0 770 21 32 25 35 70 6 99 -20 20 -33 20 -769 20 l-749 0 -12 34 c-15 46
-82 120 -137 153 -55 32 -155 40 -224 18z"/>
<path d="M308 3143 c-31 -3 -38 -8 -38 -25 0 -22 194 -367 214 -380 6 -4 119
-8 251 -8 132 0 235 4 229 8 -7 4 -60 90 -118 191 -84 145 -104 186 -95 197
10 12 -2 14 -72 14 -46 0 -140 2 -209 4 -69 2 -142 2 -162 -1z"/>
<path d="M3075 3142 c-25 -4 -41 -13 -43 -23 -3 -15 174 -334 206 -371 14 -16
41 -18 290 -18 262 0 273 1 254 18 -35 29 -215 351 -209 373 5 18 -1 19 -101
19 -59 0 -163 2 -232 4 -69 3 -143 2 -165 -2z"/>
</g>
</svg>
