<?xml version="1.0" standalone="no"?>
<!DOCTYPE svg PUBLIC "-//W3C//DTD SVG 20010904//EN"
 "http://www.w3.org/TR/2001/REC-SVG-20010904/DTD/svg10.dtd">
<svg version="1.0" xmlns="http://www.w3.org/2000/svg"
 width="512.000000pt" height="512.000000pt" viewBox="0 0 512.000000 512.000000"
 preserveAspectRatio="xMidYMid meet">

<g transform="translate(0.000000,512.000000) scale(0.100000,-0.100000)"
fill="#000000" stroke="none">
<path d="M1155 5102 c-64 -39 -60 9 -65 -736 l-5 -681 -155 -5 c-138 -4 -160
-8 -204 -29 -234 -115 -241 -447 -11 -567 l55 -29 0 -98 c0 -78 -3 -99 -15
-103 -9 -4 -27 -25 -40 -49 l-25 -42 0 -352 c0 -379 2 -392 54 -440 25 -23 26
-30 26 -121 l0 -96 -34 -12 c-19 -7 -56 -32 -83 -56 -105 -94 -135 -236 -79
-370 21 -51 93 -124 151 -154 47 -25 60 -27 208 -30 l157 -4 0 -129 0 -129
-305 0 c-327 0 -350 -3 -403 -53 -41 -38 -52 -71 -52 -159 l0 -84 -43 -11
c-57 -15 -95 -47 -118 -97 -16 -35 -19 -67 -19 -206 0 -146 2 -169 20 -197 41
-69 -143 -63 2180 -61 l2102 3 34 37 34 38 0 999 0 999 103 4 c76 3 114 9 149
25 66 30 133 95 165 162 23 47 28 69 28 136 0 96 -24 158 -88 223 -72 74 -125
95 -249 100 l-108 4 0 664 c0 651 0 664 -20 684 -30 30 -83 27 -109 -6 -21
-26 -21 -34 -21 -685 l0 -659 -261 0 c-153 0 -268 -4 -279 -10 -10 -5 -24 -26
-30 -46 -11 -32 -10 -39 7 -63 l20 -26 429 -5 c454 -5 448 -5 502 -54 35 -31
52 -70 52 -116 l0 -40 -719 0 c-845 0 -764 -13 -770 124 l-3 85 122 3 c120 3
123 4 143 29 17 24 18 31 7 63 -6 20 -20 41 -30 46 -11 6 -120 10 -262 10
-223 0 -246 -2 -275 -20 -17 -10 -37 -28 -43 -39 -10 -20 -19 -21 -269 -21
l-259 0 -40 40 -40 40 -157 0 -158 0 -38 -40 -38 -40 -156 0 -155 0 0 48 c0
55 -26 117 -64 151 -24 23 -26 30 -26 116 l0 91 34 12 c51 19 133 97 163 156
79 155 9 351 -152 427 -58 28 -65 29 -222 29 l-163 0 0 645 0 645 1565 0 1565
0 0 -304 c0 -292 1 -304 21 -330 26 -33 79 -36 109 -6 19 19 20 33 20 365 l0
345 -34 38 -34 37 -1634 3 c-1570 2 -1634 1 -1663 -16z m401 -1591 c103 -47
129 -166 57 -252 -47 -56 -67 -59 -342 -59 l-250 0 -19 28 c-51 72 -54 177 -8
256 l27 46 247 0 c219 0 252 -3 288 -19z m-48 -1103 l2 -328 -199 0 c-172 0
-200 2 -205 16 -8 21 -8 608 0 628 6 14 30 16 203 14 l196 -3 3 -327z m792 -3
l0 -175 -45 0 -45 0 0 175 0 175 45 0 45 0 0 -175z m-300 -266 c6 -11 26 -29
43 -39 28 -17 51 -20 172 -20 121 0 144 3 172 20 17 10 37 28 43 39 10 20 19
21 275 21 l265 0 15 -24 c38 -57 26 -56 734 -56 l651 0 0 -965 0 -965 -1085 0
-1085 0 0 147 c0 138 -1 149 -25 189 -24 41 -89 84 -128 84 -14 0 -17 12 -17
78 -1 116 -32 173 -113 207 -30 12 -91 15 -357 15 l-320 0 0 130 0 130 155 0
c131 0 163 3 209 20 253 95 277 447 39 578 l-63 34 0 90 c0 85 1 91 26 111 36
28 64 92 64 150 l0 47 160 0 c150 0 160 -1 170 -21z m-431 -549 c40 -20 74
-65 85 -113 17 -71 -43 -165 -119 -186 -24 -6 -136 -11 -277 -11 l-237 0 -27
46 c-46 78 -43 195 7 258 l20 26 255 0 c234 0 258 -2 293 -20z m301 -950 l0
-70 -387 -2 -388 -3 -20 -32 -20 -32 -90 0 -90 0 -20 32 c-18 28 -27 32 -68
35 l-47 3 0 54 c0 94 -59 85 571 85 l559 0 0 -70z"/>
<path d="M2466 1829 c-34 -27 -36 -77 -3 -107 l23 -22 713 0 c437 0 719 4 730
10 29 15 45 64 30 92 -26 49 0 47 -755 48 -705 0 -712 0 -738 -21z"/>
<path d="M2460 1460 c-25 -25 -26 -71 -1 -101 19 -24 19 -24 254 -24 217 0
237 1 256 19 27 25 29 86 3 109 -16 15 -49 17 -255 17 -224 0 -238 -1 -257
-20z"/>
<path d="M3127 1462 c-24 -27 -22 -85 4 -108 20 -18 42 -19 405 -19 381 0 384
0 405 22 27 27 29 75 4 103 -18 19 -30 20 -410 20 -367 0 -393 -1 -408 -18z"/>
<path d="M2466 1099 c-34 -27 -36 -77 -3 -107 l23 -22 711 0 c391 0 719 3 728
6 8 4 23 20 31 36 13 25 13 35 3 59 -6 17 -20 34 -30 39 -11 6 -292 10 -727
10 -702 0 -710 0 -736 -21z"/>
<path d="M2456 728 c-21 -30 -20 -71 3 -99 l19 -24 425 0 c404 0 426 1 446 19
27 25 29 86 3 109 -17 15 -63 17 -450 17 l-431 0 -15 -22z"/>
<path d="M3477 732 c-24 -27 -22 -85 4 -108 19 -17 39 -19 230 -19 201 0 209
1 230 22 27 27 29 75 4 103 -17 19 -30 20 -235 20 -197 0 -218 -2 -233 -18z"/>
<path d="M2634 4636 c-265 -60 -490 -273 -574 -541 -31 -100 -38 -256 -16
-365 64 -317 305 -555 623 -616 359 -68 728 139 861 483 43 110 56 196 49 322
-16 320 -219 587 -524 694 -78 27 -103 31 -223 33 -90 3 -155 -1 -196 -10z
m359 -165 c167 -59 295 -167 366 -312 68 -139 85 -261 55 -407 -46 -227 -230
-420 -457 -479 -73 -19 -213 -20 -289 -3 -214 49 -400 228 -464 445 -26 90
-24 240 5 335 66 218 244 386 463 435 86 20 245 13 321 -14z"/>
<path d="M2933 3948 l-163 -162 -98 97 c-88 86 -103 97 -135 97 -27 0 -41 -7
-56 -26 -40 -51 -32 -67 117 -216 124 -124 141 -138 172 -138 31 0 52 18 232
198 183 182 198 200 198 233 0 44 -34 79 -75 79 -24 0 -57 -28 -192 -162z"/>
</g>
</svg>
