<?xml version="1.0" standalone="no"?>
<!DOCTYPE svg PUBLIC "-//W3C//DTD SVG 20010904//EN"
 "http://www.w3.org/TR/2001/REC-SVG-20010904/DTD/svg10.dtd">
<svg version="1.0" xmlns="http://www.w3.org/2000/svg"
 width="512.000000pt" height="512.000000pt" viewBox="0 0 512.000000 512.000000"
 preserveAspectRatio="xMidYMid meet">

<g transform="translate(0.000000,512.000000) scale(0.100000,-0.100000)"
fill="#000000" stroke="none">
<path d="M2815 4976 c-16 -8 -260 -245 -542 -527 -456 -459 -513 -519 -523
-557 -13 -52 -6 -92 25 -148 65 -112 208 -138 300 -53 23 21 46 39 51 39 5 0
63 -54 129 -120 l120 -120 -62 -62 c-70 -72 -83 -94 -83 -138 0 -42 66 -208
94 -238 12 -12 39 -25 60 -29 l38 -6 644 644 c633 634 644 645 644 683 0 57
-26 79 -147 126 -134 53 -151 50 -243 -36 -37 -35 -71 -64 -76 -64 -5 0 -63
54 -128 119 l-120 120 42 45 c71 77 77 157 18 244 -54 80 -160 114 -241 78z"/>
<path d="M3541 3196 c-623 -623 -645 -646 -644 -681 1 -46 24 -72 91 -101 173
-78 211 -76 307 17 34 32 66 59 71 59 11 0 234 -222 234 -233 0 -5 -16 -28
-34 -51 -74 -90 -70 -192 10 -273 27 -27 60 -47 91 -57 43 -13 -16 -15 -642
-15 -379 -1 -706 2 -726 5 l-36 6 19 36 c23 46 23 106 -1 159 l-19 41 276 232
c153 128 278 235 280 239 1 3 -80 88 -181 189 l-183 183 -79 -97 c-44 -53
-151 -181 -238 -285 l-157 -188 -35 21 c-52 30 -139 22 -190 -16 -67 -52 -91
-137 -59 -216 16 -38 15 -41 -4 -58 -12 -9 -383 -352 -827 -762 -688 -636
-809 -752 -830 -795 -75 -157 -15 -328 143 -402 46 -21 64 -25 130 -21 130 6
134 9 470 372 l299 323 21 -86 c12 -47 44 -132 72 -189 69 -139 75 -142 248
-142 72 0 132 -2 132 -4 0 -2 -7 -17 -15 -32 -19 -37 -19 -117 0 -154 8 -16
32 -42 52 -57 l36 -28 1686 -3 c1627 -2 1687 -2 1721 16 64 35 100 112 86 188
-9 47 -68 111 -114 124 -51 14 -3302 13 -3357 -1 -22 -5 -46 -11 -54 -12 -32
-4 -122 203 -152 348 -14 70 -18 284 -6 368 8 58 11 61 145 206 l136 148 255
7 c141 4 880 6 1642 5 1371 -3 1386 -3 1420 17 94 55 116 178 46 258 -57 66
-44 65 -732 60 -557 -4 -615 -3 -575 11 39 12 114 83 562 532 465 466 518 522
528 562 31 119 -70 251 -192 251 -60 0 -103 -17 -152 -60 l-38 -33 -121 121
-122 122 62 62 c96 98 101 125 47 262 -41 105 -77 146 -126 146 -30 0 -92 -59
-677 -644z"/>
</g>
</svg>
